Coordinates
version=1
nRows=22
nColumns=24
inDegrees=yes

Units are S.I. units (second, meters, Newtons, ...)
Angles are in degrees.

endheader
time	pelvis_tilt	pelvis_list	pelvis_rotation	pelvis_tx	pelvis_ty	pelvis_tz	hip_flexion_r	hip_adduction_r	hip_rotation_r	knee_angle_r	ankle_angle_r	subtalar_angle_r	mtp_angle_r	hip_flexion_l	hip_adduction_l	hip_rotation_l	knee_angle_l	ankle_angle_l	subtalar_angle_l	mtp_angle_l	lumbar_extension	lumbar_bending	lumbar_rotation
      0.77500000	      1.85137776	     -3.47925667	      9.07072611	     -0.42795443	      1.03905677	      0.32251006	      5.66698139	     10.09107880	     -5.17005331	     -9.20982738	     -0.14118159	    -13.15516753	      4.63764017	     14.46813685	     -7.62503213	     -2.03141680	    -66.64320075	     -1.43196296	     -0.47070217	      2.13278100	     -5.97729503	      1.45451590	     -3.29338194
      0.77916667	      1.83256847	     -3.30375359	      9.05787879	     -0.42294304	      1.03983350	      0.32266522	      5.21451680	      9.96481535	     -5.14139747	     -8.94698696	      0.00186443	    -13.00190326	      4.59537108	     14.96770419	     -7.40710683	     -1.99438130	    -66.28633846	     -0.91116638	     -1.00703956	      1.95896327	     -6.03321551	      1.21443794	     -3.10885255
      0.78333333	      1.77928255	     -3.14313857	      9.04589217	     -0.41792196	      1.04053040	      0.32283043	      4.79694014	      9.85094959	     -5.11216538	     -8.66850189	      0.08487415	    -12.91537770	      4.58340360	     15.49305080	     -7.20229516	     -1.95760799	    -65.88099091	     -0.29805007	     -1.38519712	      1.91750636	     -6.03226865	      1.00759019	     -3.07468144
      0.78750000	      1.74468627	     -2.96008370	      9.02262506	     -0.41296500	      1.04125761	      0.32299429	      4.36698825	      9.71321297	     -5.07242533	     -8.41258411	      0.19960446	    -12.78149410	      4.55742641	     15.97327827	     -6.96344311	     -1.92420701	    -65.39462691	      0.20467670	     -1.83153277	      1.81931431	     -6.10373343	      0.76575650	     -2.98465532
      0.79166667	      1.74075928	     -2.77266945	      8.99972619	     -0.40796540	      1.04201388	      0.32314922	      3.88945550	      9.57421213	     -5.05800650	     -8.13199272	      0.35468132	    -12.59231765	      4.50808455	     16.39190793	     -6.72618231	     -1.90049650	    -64.83083796	      0.64565715	     -2.26723354	      1.63684746	     -6.15195108	      0.52176929	     -2.85634088
      0.79583333	      1.67352613	     -2.61660654	      8.96634434	     -0.40300495	      1.04261084	      0.32331672	      3.49929758	      9.45940187	     -5.02650214	     -7.87026824	      0.43775528	    -12.50152527	      4.49369407	     16.87789494	     -6.51526851	     -1.88284700	    -64.23757149	      1.17378596	     -2.58769408	      1.59206506	     -6.14121574	      0.31623318	     -2.82224465
      0.80000000	      1.66282450	     -2.39855666	      8.90690441	     -0.39809233	      1.04333431	      0.32348650	      3.04860563	      9.28306448	     -4.97156409	     -7.63485068	      0.56929188	    -12.35056141	      4.46274255	     17.24940444	     -6.23105088	     -1.87859373	    -63.52991355	      1.57360932	     -2.97985284	      1.48828488	     -6.24448530	      0.05404329	     -2.71403939
      0.80416667	      1.64142619	     -2.20813748	      8.85310277	     -0.39314811	      1.04399026	      0.32366728	      2.60117920	      9.13649213	     -4.92963321	     -7.37171651	      0.73179308	    -12.15959438	      4.41143618	     17.62308330	     -5.98160584	     -1.87698955	    -62.77302454	      1.92643226	     -3.35259641	      1.32732065	     -6.29042960	     -0.20289585	     -2.57127203
      0.80833333	      1.62728720	     -2.02400118	      8.78366341	     -0.38824325	      1.04461445	      0.32384820	      2.16176559	      8.99554172	     -4.87746533	     -7.13357574	      0.86769951	    -12.00222311	      4.35701103	     17.96935414	     -5.73883378	     -1.88367606	    -61.96135230	      2.31260013	     -3.66922001	      1.17279842	     -6.36089163	     -0.43326556	     -2.45728591
      0.81250000	      1.58694742	     -1.81924293	      8.68976352	     -0.38335408	      1.04519531	      0.32405492	      1.76332888	      8.82602817	     -4.81012582	     -6.92764212	      0.98541040	    -11.88188514	      4.31771721	     18.30968815	     -5.46895829	     -1.90971869	    -61.07422823	      2.68583962	     -3.96095961	      1.06835599	     -6.41627534	     -0.68458539	     -2.36723268
      0.81666667	      1.56522930	     -1.64158472	      8.60495333	     -0.37846883	      1.04573626	      0.32423095	      1.35759743	      8.68048483	     -4.82022755	     -6.74109291	      1.22937005	    -11.54708572	      3.92714706	     18.62185545	     -5.22746879	     -1.92002814	    -60.14434694	      3.05024071	     -4.20694866	      0.11791755	     -6.46026085	     -0.92280483	     -2.04596103
      0.82083333	      1.56604890	     -1.44675398	      8.49028335	     -0.37358160	      1.04631642	      0.32445645	      0.89902959	      8.53258611	     -4.66264805	     -6.49371908	      1.30953365	    -11.51766344	      3.87599227	     18.86869901	     -4.97637285	     -1.96137576	    -59.12522653	      3.30782364	     -4.55751151	      0.00088956	     -6.56517256	     -1.15279614	     -2.04806787
      0.82500000	      1.50805905	     -1.27384126	      8.37554489	     -0.36870420	      1.04672353	      0.32468967	      0.52457519	      8.39556309	     -4.55172877	     -6.27653315	      1.41901520	    -11.43823491	      3.85879153	     19.17500074	     -4.74424937	     -2.00423835	    -58.08014954	      3.65448185	     -4.77204134	     -0.03693071	     -6.57493946	     -1.39569093	     -1.99597433
      0.82916667	      1.52952230	     -1.06365531	      8.21658177	     -0.36387487	      1.04727527	      0.32494588	      0.08428822	      8.22281079	     -4.41724941	     -6.11562572	      1.57425333	    -11.32836452	      3.82112972	     19.33995475	     -4.48191181	     -2.07451863	    -56.91962479	      3.84005916	     -5.07000535	     -0.11996815	     -6.71799406	     -1.63594890	     -1.81547205
      0.83333333	      1.52573397	     -0.88103829	      8.06662681	     -0.35901462	      1.04772467	      0.32519029	     -0.33335401	      8.07524031	     -4.29059374	     -5.93255610	      1.72258270	    -11.20410585	      3.77631266	     19.52256678	     -4.24614065	     -2.13533923	    -55.72288717	      4.04552716	     -5.34620359	     -0.21193663	     -6.80065177	     -1.86104823	     -1.63448605
      0.83750000	      1.53992418	     -0.70688679	      7.91172976	     -0.35415776	      1.04817097	      0.32542901	     -0.77339594	      7.93720917	     -4.15515185	     -5.73714475	      1.88002176	    -11.04940958	      3.69629579	     19.66236855	     -4.01795923	     -2.19112436	    -54.46249389	      4.19976391	     -5.65794209	     -0.36580431	     -6.89669245	     -2.07154413	     -1.38890157
      0.84166667	      1.52606438	     -0.54433644	      7.73610393	     -0.34930801	      1.04850010	      0.32570549	     -1.16333619	      7.80590445	     -4.00563092	     -5.57821281	      2.04386074	    -10.94879572	      3.62006486	     19.81393698	     -3.81198682	     -2.27875299	    -53.15668170	      4.35122244	     -5.92474744	     -0.50878154	     -6.95769962	     -2.28107871	     -1.20707249
      0.84583333	      1.49171200	     -0.36904183	      7.53635969	     -0.34448064	      1.04879170	      0.32600982	     -1.51337080	      7.65360205	     -3.83525620	     -5.45622021	      2.19101941	    -10.86640215	      3.56996592	     19.95457295	     -3.59021964	     -2.37894522	    -51.78098683	      4.49205412	     -6.16776528	     -0.60475277	     -7.02356185	     -2.51471949	     -1.07199245
      0.85000000	      1.52207527	     -0.21731270	      7.35250690	     -0.33964088	      1.04913085	      0.32625389	     -1.95295210	      7.53190267	     -3.68049137	     -5.28094758	      2.33384053	    -10.71788570	      3.44288533	     20.00641477	     -3.38945027	     -2.44786232	    -50.34601430	      4.55684857	     -6.52782992	     -0.83380287	     -7.13740697	     -2.68963342	     -0.76948994
      0.85416667	      1.51937305	     -0.07319303	      7.14725227	     -0.33477884	      1.04936908	      0.32655138	     -2.34268024	      7.41405697	     -3.50189812	     -5.13590012	      2.51308917	    -10.64119331	      3.34903108	     20.07021088	     -3.21249544	     -2.56569111	    -48.85924227	      4.58264234	     -6.82871783	     -1.00835514	     -7.19363747	     -2.87106831	     -0.58296563
      0.85833333	      1.50523492	      0.06439983	      6.93191307	     -0.32992751	      1.04955811	      0.32684034	     -2.71221682	      7.29576876	     -3.31592306	     -5.00090243	      2.66678948	    -10.54248987	      3.24195094	     20.12077959	     -3.03446969	     -2.67501841	    -47.31264257	      4.58566989	     -7.16284210	     -1.20633704	     -7.25382375	     -3.05003626	     -0.35552979
      0.86250000	      1.49902124	      0.18929022	      6.71419066	     -0.32508069	      1.04970317	      0.32712578	     -3.08476165	      7.19002138	     -3.13195793	     -4.86993385	      2.82686733	    -10.45727308	      3.13657180	     20.14459395	     -2.87542208	     -2.80111761	    -45.71890347	      4.56036290	     -7.49376309	     -1.40449642	     -7.31649407	     -3.20062218	     -0.13637464
